OpenSim_Sub10_CSStiffKnee_RCS.mot
version=1
nRows=86
nColumns=11
inDegrees=no
endheader
time	Top_Thigh	Med_Thigh	Bot_Thigh	Top_Shank	2nd_Top_Shank	2nd_Bot_Shank	Bot_Shank	BNOx	BNOy	BNOZ
61.30000000	1960.94790405	1920.89600914	1742.21084488	1310.07416701	1467.23589749	1297.11110025	1304.51068320	0	0	0
61.31000000	1961.01580249	1917.16289827	1741.29291770	1310.02161507	1467.06181542	1298.54060913	1304.87725362	0	0	0
61.32000000	1960.89924098	1913.22212416	1740.28993859	1309.94032841	1466.83704210	1300.12234685	1305.30710929	0	0	0
61.33000000	1960.62970980	1909.22699386	1739.26416672	1309.84715913	1466.54915095	1301.79780925	1305.77048281	0	0	0
61.34000000	1960.26210175	1905.41649152	1738.31358628	1309.76885978	1466.18055336	1303.47409880	1306.22011328	0	0	0
61.35000000	1959.85161211	1902.03070868	1737.53664317	1309.73231085	1465.71359403	1305.05787344	1306.60851372	0	0	0
61.36000000	1959.45343614	1899.30973686	1737.03178330	1309.76439287	1465.13061762	1306.45579110	1306.88819713	0	0	0
61.37000000	1959.12276913	1897.49366758	1736.89745258	1309.89198632	1464.41396883	1307.57450972	1307.01167651	0	0	0
61.38000000	1958.91312151	1896.81233710	1737.22771374	1310.14038198	1463.54719006	1308.32357864	1306.93365230	0	0	0
61.39000000	1958.83925258	1897.25971031	1738.01581618	1310.49830643	1462.54137137	1308.67904936	1306.65913590	0	0	0
61.40000000	1958.87717051	1898.59388081	1739.15419598	1310.91792209	1461.43515048	1308.68347550	1306.24344968	0	0	0
61.41000000	1959.00119864	1900.56268688	1740.53090605	1311.34980163	1460.26836284	1308.38230212	1305.74410341	0	0	0
61.42000000	1959.18566030	1902.91396684	1742.03399928	1311.74451771	1459.08084388	1307.82097426	1305.21860689	0	0	0
61.43000000	1959.40487881	1905.39555897	1743.55152857	1312.05264302	1457.91242906	1307.04493696	1304.72446990	0	0	0
61.44000000	1959.63317752	1907.75530159	1744.97154681	1312.22475021	1456.80295381	1306.09963525	1304.31920224	0	0	0
61.45000000	1959.84487974	1909.74103298	1746.18210691	1312.21141196	1455.79225358	1305.03051418	1304.06031370	0	0	0
61.46000000	1960.01432110	1911.10066961	1747.07129386	1311.96322069	1454.92014890	1303.88302247	1304.00529263	0	0	0
61.47000000	1960.13211143	1911.68583504	1747.56980029	1311.45696483	1454.20668789	1302.70747226	1304.18318776	0	0	0
61.48000000	1960.23721736	1911.65630446	1747.73492147	1310.74727081	1453.61316755	1301.56862687	1304.53854327	0	0	0
61.49000000	1960.37754591	1911.22882555	1747.64735960	1309.90315610	1453.09002269	1300.53392135	1305.00027979	0	0	0
61.50000000	1960.60100414	1910.62014596	1747.38781686	1308.99363814	1452.58768814	1299.67079078	1305.49731793	0	0	0
61.51000000	1960.95549907	1910.04701339	1747.03699544	1308.08773442	1452.05659872	1299.04667025	1305.95857830	0	0	0
61.52000000	1961.47899888	1909.70444034	1746.67265432	1307.24687713	1451.45877266	1298.71593671	1306.32274704	0	0	0
61.53000000	1962.15571469	1909.66987868	1746.35663342	1306.49147159	1450.81888033	1298.66233863	1306.58132990	0	0	0
61.54000000	1962.95176589	1909.98121577	1746.14541513	1305.82811565	1450.18267736	1298.84585478	1306.74360885	0	0	0
61.55000000	1963.83325826	1910.67630911	1746.09547784	1305.26339677	1449.59593532	1299.22644599	1306.81887925	0	0	0
61.56000000	1964.76629755	1911.79301624	1746.26329990	1304.80390242	1449.10442575	1299.76407311	1306.81643645	0	0	0
61.57000000	1965.71698954	1913.36919466	1746.70535968	1304.45622005	1448.75392018	1300.41869700	1306.74557582	0	0	0
61.58000000	1966.65144000	1915.44270191	1747.47813556	1304.22693712	1448.59019018	1301.15027849	1306.61559271	0	0	0
61.59000000	1967.53575468	1918.05139551	1748.63810590	1304.12264109	1448.65900728	1301.91877843	1306.43578248	0	0	0
61.60000000	1968.33603935	1921.23313297	1750.24174907	1304.14991942	1449.00614303	1302.68415766	1306.21544049	0	0	0
61.61000000	1969.01839979	1925.02577183	1752.34554343	1304.31535956	1449.67736898	1303.40637704	1305.96386209	0	0	0
61.62000000	1969.54894175	1929.46716959	1755.00596737	1304.62554899	1450.71845668	1304.04539740	1305.69034266	0	0	0
61.63000000	1969.89377101	1934.59518379	1758.27949924	1305.08707514	1452.17517767	1304.56117960	1305.40417755	0	0	0
61.64000000	1970.01899333	1940.44767195	1762.22261741	1305.70652549	1454.09330349	1304.91368447	1305.11466211	0	0	0
61.65000000	1969.90307329	1947.04947412	1766.88356966	1306.48746809	1456.51272272	1305.06589226	1304.83162507	0	0	0
61.66000000	1969.70940016	1954.23065064	1772.18744956	1307.38829164	1459.38529724	1305.02596226	1304.57287600	0	0	0
61.67000000	1969.74371854	1961.67131999	1777.96454637	1308.33260571	1462.59512580	1304.83683268	1304.36236811	0	0	0
61.68000000	1970.31543493	1969.04774366	1784.04271065	1309.24312525	1466.02456403	1304.54233638	1304.22421262	0	0	0
61.69000000	1971.73395581	1976.03618311	1790.24979295	1310.04256517	1469.55596757	1304.18630622	1304.18252081	0	0	0
61.70000000	1974.30868768	1982.31289982	1796.41364383	1310.65364042	1473.07169209	1303.81257504	1304.26140390	0	0	0
61.71000000	1978.34903702	1987.55415525	1802.36211385	1310.99906592	1476.45409321	1303.46497570	1304.48497314	0	0	0
61.72000000	1984.16441032	1991.43621088	1807.92305355	1311.00155661	1479.58552659	1303.18734105	1304.87733979	0	0	0
61.73000000	1992.06421408	1993.63532818	1812.92431351	1310.58382742	1482.34834786	1303.02350394	1305.46261508	0	0	0
61.74000000	2002.35111160	1993.83218493	1817.19478340	1309.66985706	1484.62586474	1303.01686927	1306.26435420	0	0	0
61.75000000	2014.80604467	1992.04915024	1820.64375041	1308.28140358	1486.37504625	1303.17773018	1307.26308967	0	0	0
61.76000000	2028.32560077	1988.88778376	1823.31678110	1306.60596779	1487.67772250	1303.46025310	1308.36642762	0	0	0
61.77000000	2041.72070420	1985.00574861	1825.27264277	1304.84710522	1488.62781828	1303.81316774	1309.47491013	0	0	0
61.78000000	2053.82894719	1981.04685307	1826.56963826	1303.20393110	1489.31757187	1304.18623223	1310.49128830	0	0	0
61.79000000	2064.10128491	1977.33624468	1827.25538806	1301.77343358	1489.80043139	1304.55285780	1311.36912054	0	0	0
61.80000000	2072.60203551	1973.88041018	1827.36683029	1300.55047375	1490.09105478	1304.91010889	1312.11277256	0	0	0
61.81000000	2079.42218508	1970.67198153	1826.94043861	1299.52547240	1490.20241348	1305.25607829	1312.72881909	0	0	0
61.82000000	2084.65271972	1967.70359065	1826.01268668	1298.68885031	1490.14747890	1305.58885883	1313.22383486	0	0	0
61.83000000	2088.38462552	1964.96786950	1824.62004818	1298.03102826	1489.93922248	1305.90654331	1313.60439460	0	0	0
61.84000000	2090.70888858	1962.45745000	1822.79899678	1297.54242704	1489.59061563	1306.20722455	1313.87707303	0	0	0
61.85000000	2091.71649500	1960.16496411	1820.58600613	1297.21346742	1489.11462979	1306.48899536	1314.04844488	0	0	0
61.86000000	2091.49843086	1958.08304376	1818.01754990	1297.03457020	1488.52423637	1306.74994855	1314.12508487	0	0	0
61.87000000	2090.14568226	1956.20432089	1815.13010177	1296.99615615	1487.83240680	1306.98817694	1314.11356775	0	0	0
61.88000000	2087.74923529	1954.52142744	1811.96013540	1297.08864606	1487.05211252	1307.20177333	1314.02046823	0	0	0
61.89000000	2084.40007606	1953.02699536	1808.54412446	1297.30246071	1486.19632493	1307.38883054	1313.85236104	0	0	0
61.90000000	2080.18919065	1951.71365658	1804.91854260	1297.62802089	1485.27801548	1307.54744138	1313.61582092	0	0	0
61.91000000	2075.20756516	1950.57404305	1801.11986351	1298.05574738	1484.31015557	1307.67569867	1313.31742258	0	0	0
61.92000000	2069.54618569	1949.60078669	1797.18456085	1298.57606096	1483.30571665	1307.77169521	1312.96374076	0	0	0
61.93000000	2063.29603832	1948.78651947	1793.14910827	1299.17938241	1482.27767012	1307.83352382	1312.56135018	0	0	0
61.94000000	2056.54810916	1948.12387331	1789.04997946	1299.85613252	1481.23898743	1307.85927730	1312.11682557	0	0	0
61.95000000	2049.39338429	1947.60548016	1784.92364808	1300.59673208	1480.20263999	1307.84704848	1311.63674166	0	0	0
61.96000000	2041.92284982	1947.22397195	1780.80658779	1301.39160186	1479.18159923	1307.79493017	1311.12767318	0	0	0
61.97000000	2034.22749184	1946.97198063	1776.73527226	1302.23116264	1478.18883657	1307.70101517	1310.59619485	0	0	0
61.98000000	2026.39829643	1946.84213814	1772.74617516	1303.10583522	1477.23732344	1307.56339630	1310.04888141	0	0	0
61.99000000	2018.52624971	1946.82707642	1768.87577015	1304.00604038	1476.34003126	1307.38016637	1309.49230758	0	0	0
62	2010.70233775	1946.91942741	1765.16053091	1304.92219889	1475.50993147	1307.14941819	1308.93304808	0	0	0
62.01000000	2003.01754666	1947.11182304	1761.63693109	1305.84473154	1474.75999547	1306.86924458	1308.37767765	0	0	0
62.02000000	1995.56286253	1947.39689527	1758.34144437	1306.76405912	1474.10319471	1306.53773834	1307.83277102	0	0	0
62.03000000	1988.42927145	1947.76727602	1755.31054441	1307.67060240	1473.55250060	1306.15299230	1307.30490290	0	0	0
62.04000000	1981.70775953	1948.21559725	1752.58070488	1308.55478218	1473.12088457	1305.71309926	1306.80064804	0	0	0
62.05000000	1975.48931285	1948.73449089	1750.18839945	1309.40701923	1472.82131804	1305.21615203	1306.32658115	0	0	0
62.06000000	1969.86491750	1949.31658888	1748.17010178	1310.21773434	1472.66677245	1304.66024343	1305.88927697	0	0	0
62.07000000	1964.92555959	1949.95452316	1746.56228554	1310.97734829	1472.67021921	1304.04346627	1305.49531022	0	0	0
62.08000000	1960.76222521	1950.64092567	1745.40142439	1311.67628186	1472.84462974	1303.36391336	1305.15125563	0	0	0
62.09000000	1957.46330191	1951.36756325	1744.72144542	1312.30496312	1473.20069286	1302.62105767	1304.86403717	0	0	0
62.10000000	1955.05741082	1952.10630515	1744.49770418	1312.85398766	1473.69659697	1301.84611577	1304.64861131	0	0	0
62.11000000	1953.51340662	1952.80912305	1744.64698472	1313.31411855	1474.23803012	1301.10204786	1304.52796704	0	0	0
62.12000000	1952.79754546	1953.42712353	1745.08352446	1313.67612617	1474.72839770	1300.45319428	1304.52544258	0	0	0
62.13000000	1952.87608350	1953.91141318	1745.72156088	1313.93078090	1475.07110513	1299.96389536	1304.66437616	0	0	0
62.14000000	1953.71527688	1954.21309855	1746.47533141	1314.06885311	1475.16955782	1299.69849144	1304.96810599	0	0	0
62.15000000	1955.28138176	1954.28328624	1747.25907349	1314.08111318	1474.92716118	1299.72132288	1305.45997030	0	0	0
